<svg width="174" height="2114" viewBox="0 0 174 2114" fill="none" xmlns="http://www.w3.org/2000/svg">
<circle cx="35" cy="35" r="35" fill="#2D2D2D"/>
<path d="M23.208 49C22.76 49 22.536 48.776 22.536 48.328V43.096C22.536 42.648 22.76 42.424 23.208 42.424H30.264V25.384L23.592 27.448C23.112 27.576 22.872 27.4 22.872 26.92V21.832C22.872 21.416 23.048 21.144 23.4 21.016L34.776 17.464C34.936 17.4 35.096 17.352 35.256 17.32C35.416 17.288 35.56 17.272 35.688 17.272H37.272C37.72 17.272 37.944 17.496 37.944 17.944V42.424H44.424C44.872 42.424 45.096 42.648 45.096 43.096V48.328C45.096 48.776 44.872 49 44.424 49H23.208Z" fill="#FF6B00"/>
<path d="M52 70V70C121.445 163.558 153.139 279.823 140.781 395.68L140 403M125.5 490V490C96.7758 533.251 76.7621 581.689 66.5796 632.602L66 635.5" stroke="#FF6B00" stroke-width="10"/>
<circle cx="139" cy="446" r="35" fill="#2D2D2D"/>
<path d="M127.688 460C127.24 460 127.016 459.776 127.016 459.328V454.912C127.016 453.44 127.288 452.128 127.832 450.976C128.408 449.792 129.144 448.752 130.04 447.856C130.968 446.928 131.976 446.096 133.064 445.36C134.152 444.624 135.24 443.952 136.328 443.344C137.416 442.704 138.408 442.08 139.304 441.472C140.232 440.864 140.968 440.256 141.512 439.648C142.088 439.008 142.376 438.32 142.376 437.584V436.864C142.376 436.064 142.088 435.472 141.512 435.088C140.936 434.672 139.992 434.464 138.68 434.464C137.4 434.464 136.456 434.72 135.848 435.232C135.24 435.712 134.952 436.416 134.984 437.344C134.984 437.792 134.76 438.016 134.312 438.016H128.408C127.992 438.016 127.768 437.792 127.736 437.344C127.608 435.232 127.992 433.488 128.888 432.112C129.816 430.704 131.144 429.664 132.872 428.992C134.632 428.32 136.696 427.984 139.064 427.984C142.712 427.984 145.464 428.704 147.32 430.144C149.176 431.552 150.104 433.76 150.104 436.768C150.104 438.24 149.848 439.536 149.336 440.656C148.824 441.776 148.136 442.768 147.272 443.632C146.408 444.464 145.448 445.232 144.392 445.936C143.368 446.608 142.344 447.232 141.32 447.808C140.296 448.384 139.352 448.96 138.488 449.536C137.656 450.08 136.968 450.672 136.424 451.312C135.912 451.92 135.656 452.624 135.656 453.424H149.288C149.736 453.424 149.96 453.648 149.96 454.096V459.328C149.96 459.776 149.736 460 149.288 460H127.688Z" fill="#FF6B00"/>
<path d="M146.5 1092.5V1117.5C146.5 1163.48 135.348 1208.77 114 1249.5V1249.5" stroke="#FF6B00" stroke-width="10" stroke-dasharray="20 20"/>
<path d="M88 898V898C126.002 949.644 146.5 1012.08 146.5 1076.2V1078" stroke="#FF6B00" stroke-width="10"/>
<circle cx="59" cy="867" r="35" fill="#2D2D2D"/>
<path d="M58.488 881.576C55.672 881.576 53.384 881.176 51.624 880.376C49.896 879.544 48.664 878.408 47.928 876.968C47.224 875.528 46.936 873.896 47.064 872.072C47.128 871.624 47.352 871.4 47.736 871.4H53.688C54.136 871.4 54.36 871.592 54.36 871.976C54.36 873.192 54.728 874.008 55.464 874.424C56.232 874.808 57.368 875 58.872 875C60.216 875 61.24 874.744 61.944 874.232C62.648 873.688 63 872.888 63 871.832V871.16C63 869.144 61.64 868.136 58.92 868.136H55.416C54.968 868.136 54.744 867.912 54.744 867.464V862.712C54.744 862.264 54.968 862.04 55.416 862.04H58.104C59.608 862.04 60.68 861.8 61.32 861.32C61.992 860.84 62.328 860.072 62.328 859.016V858.2C62.328 857.24 62.008 856.536 61.368 856.088C60.76 855.608 59.784 855.368 58.44 855.368C57.032 855.368 56.008 855.608 55.368 856.088C54.728 856.568 54.408 857.272 54.408 858.2C54.408 858.648 54.184 858.872 53.736 858.872H47.832C47.384 858.872 47.16 858.648 47.16 858.2C47.16 855.224 48.136 852.952 50.088 851.384C52.072 849.784 55.016 848.984 58.92 848.984C62.792 848.984 65.624 849.704 67.416 851.144C69.208 852.552 70.104 854.6 70.104 857.288C70.104 859.144 69.704 860.696 68.904 861.944C68.136 863.192 67.016 864.088 65.544 864.632V864.776C67.208 865.224 68.488 866.088 69.384 867.368C70.28 868.616 70.728 870.168 70.728 872.024C70.728 875.16 69.688 877.544 67.608 879.176C65.528 880.776 62.488 881.576 58.488 881.576Z" fill="#FF6B00"/>
<path d="M51.5 816L50.6299 807.831C45.2516 757.334 48.7613 706.286 61 657V657" stroke="#FF6B00" stroke-width="10" stroke-dasharray="20 20"/>
<path d="M54.5 1324L36.6685 1357.86C22.4371 1384.88 15 1414.96 15 1445.5V1445.5" stroke="#FF6B00" stroke-width="10" stroke-dasharray="20 20"/>
<circle cx="84.5" cy="1282" r="35" fill="#2D2D2D"/>
<path d="M87.924 1296C87.476 1296 87.252 1295.78 87.252 1295.33V1290.91H71.508C71.06 1290.91 70.836 1290.69 70.836 1290.24V1288.9C70.836 1288.51 70.9 1288.19 71.028 1287.94L82.452 1265.04C82.644 1264.72 82.916 1264.56 83.268 1264.56H90.084C90.66 1264.56 90.836 1264.83 90.612 1265.38L81.396 1284.34H87.444L88.308 1275.7C88.34 1275.25 88.564 1275.02 88.98 1275.02H94.5C94.948 1275.02 95.172 1275.25 95.172 1275.7V1284.34H97.908C98.356 1284.34 98.58 1284.56 98.58 1285.01V1290.24C98.58 1290.69 98.356 1290.91 97.908 1290.91H95.172V1295.33C95.172 1295.78 94.948 1296 94.5 1296H87.924Z" fill="#FF6B00"/>
<path d="M16.5 1469V1469C11.9179 1518.42 20.7251 1568.16 41.9969 1613.01L46.5 1622.5" stroke="#FF6B00" stroke-width="10"/>
<path d="M147.5 1912L139.69 1943.42C130.313 1981.14 113.969 2016.78 91.5 2048.5V2048.5" stroke="#FF6B00" stroke-width="10" stroke-dasharray="20 20"/>
<path d="M89.5 1700V1700C131.016 1754.49 153.5 1821.1 153.5 1889.6V1892" stroke="#FF6B00" stroke-width="10"/>
<circle cx="62" cy="1669" r="35" fill="#2D2D2D"/>
<path d="M60.816 1683.58C58.16 1683.58 55.952 1683.18 54.192 1682.38C52.464 1681.54 51.2 1680.42 50.4 1679.02C49.632 1677.58 49.344 1675.98 49.536 1674.22C49.568 1673.77 49.792 1673.54 50.208 1673.54H56.16C56.608 1673.54 56.832 1673.77 56.832 1674.22C56.832 1674.95 57.152 1675.61 57.792 1676.18C58.464 1676.73 59.536 1677 61.008 1677C62.704 1677 63.904 1676.7 64.608 1676.09C65.312 1675.45 65.664 1674.49 65.664 1673.21V1672.44C65.664 1671.64 65.504 1670.97 65.184 1670.42C64.864 1669.85 64.352 1669.42 63.648 1669.13C62.944 1668.81 62.016 1668.65 60.864 1668.65C59.392 1668.65 57.824 1668.79 56.16 1669.08C54.528 1669.37 53.008 1669.7 51.6 1670.09C51.152 1670.22 50.832 1670.22 50.64 1670.09C50.448 1669.96 50.368 1669.7 50.4 1669.32L51.936 1652.23C52 1651.78 52.224 1651.56 52.608 1651.56H70.56C71.008 1651.56 71.232 1651.78 71.232 1652.23V1657.46C71.232 1657.91 71.008 1658.14 70.56 1658.14H58.368L57.936 1663.32C58.992 1663.06 59.968 1662.87 60.864 1662.74C61.792 1662.62 62.768 1662.55 63.792 1662.55C66.96 1662.55 69.36 1663.37 70.992 1665C72.624 1666.63 73.44 1669.19 73.44 1672.68C73.44 1676.49 72.384 1679.26 70.272 1680.98C68.16 1682.71 65.008 1683.58 60.816 1683.58Z" fill="#FF6B00"/>
<circle cx="60" cy="2079" r="35" fill="#2D2D2D"/>
<path d="M60.736 2093.58C56.448 2093.58 53.296 2092.63 51.28 2090.74C49.264 2088.82 48.256 2085.82 48.256 2081.72V2072.89C48.256 2069.05 49.312 2066.1 51.424 2064.06C53.568 2062.01 56.688 2060.98 60.784 2060.98C63.024 2060.98 64.992 2061.26 66.688 2061.8C68.384 2062.34 69.712 2063.21 70.672 2064.39C71.632 2065.58 72.112 2067.16 72.112 2069.14C72.112 2069.59 71.888 2069.82 71.44 2069.82H65.536C65.088 2069.82 64.864 2069.59 64.864 2069.14C64.864 2068.5 64.512 2068.04 63.808 2067.75C63.136 2067.43 62.16 2067.27 60.88 2067.27C59.28 2067.27 58.064 2067.64 57.232 2068.38C56.432 2069.11 56.032 2070.42 56.032 2072.31V2082.49C56.032 2083.9 56.368 2085.05 57.04 2085.94C57.744 2086.84 58.944 2087.29 60.64 2087.29C62.208 2087.29 63.392 2086.92 64.192 2086.18C65.024 2085.42 65.44 2084.33 65.44 2082.92V2082.1C65.44 2080.86 65.088 2079.98 64.384 2079.46C63.712 2078.95 62.72 2078.7 61.408 2078.7C60.352 2078.7 59.296 2078.92 58.24 2079.37C57.184 2079.78 56.144 2080.38 55.12 2081.14L55.168 2075.86C56.416 2074.94 57.808 2074.18 59.344 2073.61C60.88 2073 62.496 2072.7 64.192 2072.7C67.264 2072.7 69.536 2073.5 71.008 2075.1C72.48 2076.66 73.216 2078.98 73.216 2082.06C73.216 2085.86 72.176 2088.74 70.096 2090.7C68.016 2092.62 64.896 2093.58 60.736 2093.58Z" fill="#FF6B00"/>
</svg>
